<svg xmlns="http://www.w3.org/2000/svg" width="256" height="256" viewBox="0 0 100 100"><rect width="100" height="100" rx="50" fill="#02aab0"></rect><path d="M23.30 18.01L23.30 81.99L14.87 81.99L14.87 18.01L23.30 18.01ZM76.08 81.99L62.19 56.11L47.17 56.11L47.17 81.99L38.68 81.99L38.68 18.01L59.87 18.01Q70.68 18.01 76.50 22.93Q82.32 27.85 82.32 37.26L82.32 37.26Q82.32 43.23 79.09 47.67Q75.86 52.11 70.10 54.31L70.10 54.31L85.13 81.46L85.13 81.99L76.08 81.99ZM47.17 24.95L47.17 49.21L60.13 49.21Q66.41 49.21 70.13 45.96Q73.84 42.71 73.84 37.26L73.84 37.26Q73.84 31.32 70.30 28.16Q66.77 25.00 60.09 24.95L60.09 24.95L47.17 24.95Z" fill="#fff"></path></svg>
